<svg xmlns="http://www.w3.org/2000/svg" viewBox="0 0 112 29"><defs><style>.a{fill:#ffc72c;}</style></defs><path class="a" d="M18.67,20H21a.72.72,0,0,0,.49-.65c.47-3.68,1-7.37,1.43-11.06.46,3.69,1,7.38,1.42,11.06.07.34.31.65.59.65h2.39a.53.53,0,0,0,.53-.46c1-5.89,1.95-11.78,2.94-17.64a.38.38,0,0,0-.4-.46h-2a.51.51,0,0,0-.52.46c-.68,3.94-1.33,7.88-2,11.84-.49-3.9-1-7.81-1.51-11.68,0-.31-.25-.65-.56-.65h-1.8c-.28,0-.5.28-.56.65-.52,3.87-1,7.78-1.55,11.68-.65-3.9-1.3-7.81-2-11.68a.78.78,0,0,0-.71-.65H15.6a.53.53,0,0,0-.52.65C16,7.8,17,13.6,18,19.36a.75.75,0,0,0,.71.62Z"/><path class="a" d="M33.08,1.39a.66.66,0,0,0-.65.65V19.36a.66.66,0,0,0,.65.66h1.65a.66.66,0,0,0,.65-.66v-5L38,11.9v7.46a.66.66,0,0,0,.65.66H40.3a.66.66,0,0,0,.66-.66V2a.66.66,0,0,0-.66-.65H38.63A.66.66,0,0,0,38,2V8.67l-2.63,2.48V2a.66.66,0,0,0-.65-.65Z"/><path class="a" d="M43.4,1.45a.64.64,0,0,0-.62.62V19.36a.64.64,0,0,0,.62.65h1.68a.65.65,0,0,0,.65-.65V2.07a.65.65,0,0,0-.65-.62Z"/><path class="a" d="M50.44,20h4.18a.65.65,0,0,0,.65-.65V9.91a.63.63,0,0,0-.65-.62H52.24a.62.62,0,0,0-.62.62v1.3a.65.65,0,0,0,.62.65h.46v5.33H51.49a1,1,0,0,1-1-1v-11a1,1,0,0,1,1-1h2.76a.65.65,0,0,0,.65-.62V2a.63.63,0,0,0-.65-.59H50.44a2.87,2.87,0,0,0-2.88,2.88V17.13A2.93,2.93,0,0,0,50.44,20Z"/><path class="a" d="M62.62,1.36H59.71a2.9,2.9,0,0,0-2.89,2.88V17.13A2.9,2.9,0,0,0,59.71,20h2.88a2.89,2.89,0,0,0,2.88-2.88V4.24a2.85,2.85,0,0,0-2.85-2.88Zm-1.86,15.8a1,1,0,0,1-1-1V5.2a1,1,0,0,1,1-1h.84a1,1,0,0,1,1,1v11a1,1,0,0,1-1,1Z"/><path class="a" d="M75.23,1.39H73.56a.65.65,0,0,0-.65.62V10.9C72.16,8,71.42,5,70.68,2c-.1-.37-.41-.65-.65-.65H68a.65.65,0,0,0-.65.62V19.36A.66.66,0,0,0,68,20h1.67a.65.65,0,0,0,.62-.66v-10c.84,3.32,1.71,6.67,2.51,10,.1.34.41.65.65.65H75.2a.64.64,0,0,0,.62-.65V2a.57.57,0,0,0-.59-.59Z"/></svg>