<?xml version="1.0" encoding="utf-8"?>
<!-- Generator: Adobe Illustrator 26.0.3, SVG Export Plug-In . SVG Version: 6.00 Build 0)  -->
<svg version="1.1" id="Camada_1" xmlns="http://www.w3.org/2000/svg" xmlns:xlink="http://www.w3.org/1999/xlink" x="0px" y="0px"
	 viewBox="0 0 112 29" style="enable-background:new 0 0 112 29;" xml:space="preserve">
<style type="text/css">
	.st0{fill:#FFC72C;}
</style>
<path class="st0" d="M22.3,0.3c-0.5,0-1,0.4-1,1V28c0,0.5,0.5,1,1,1h2.5c0.5,0,1-0.5,1-1v-7.7l4.1-3.8V28c0,0.5,0.5,1,1,1h2.5
	c0.5,0,1-0.5,1-1V1.3c0-0.5-0.4-1-1-1h-2.5c-0.5,0-1,0.4-1,1v10.2l-4.1,3.8v-14c0-0.5-0.4-1-1-1H22.3z M22.3,0.3"/>
<path class="st0" d="M38.2,0.4c-0.5,0-0.9,0.4-0.9,0.9V28c0,0.5,0.5,1,0.9,1h2.6c0.5,0,1-0.5,1-1V1.3c0-0.5-0.4-0.9-1-0.9H38.2z
	 M38.2,0.4"/>
<path class="st0" d="M49,28.9c2.2,0,4.3,0,6.4,0c0.5,0,1-0.5,1-1V13.4c0-0.5-0.4-0.9-1-0.9c-1.2,0-2.5,0-3.7,0
	c-0.5,0-0.9,0.4-0.9,0.9v2c0,0.5,0.4,1,0.9,1h0.7v8.2h-1.8c-0.9,0-1.6-0.7-1.6-1.5v-17c0-0.8,0.7-1.5,1.6-1.5h4.3c0.5,0,1-0.4,1-0.9
	V1.1c0-0.5-0.5-0.9-1-0.9c-1.9,0-3.9,0-5.9,0c-2.4,0-4.4,2-4.4,4.4v19.9C44.6,26.9,46.6,28.9,49,28.9L49,28.9z M49,28.9"/>
<path class="st0" d="M67.8,0.2h-4.5c-2.4,0-4.4,2-4.4,4.4v19.9c0,2.4,2,4.4,4.4,4.4h4.5c2.5,0,4.4-2,4.4-4.4V4.7
	C72.2,2.2,70.2,0.2,67.8,0.2L67.8,0.2z M64.9,24.6c-0.9,0-1.6-0.7-1.6-1.5V6.1c0-0.8,0.7-1.5,1.6-1.5h1.3c0.8,0,1.5,0.7,1.5,1.5V23
	c0,0.8-0.7,1.5-1.5,1.5H64.9z M64.9,24.6"/>
<path class="st0" d="M87.2,0.3h-2.6c-0.5,0-1,0.4-1,0.9v13.7c-1.1-4.5-2.3-9.1-3.4-13.7c-0.2-0.6-0.6-1-1-1c-1.1,0-2.1,0-3.2,0
	c-0.5,0-1,0.4-1,0.9V28c0,0.5,0.5,1,1,1h2.6c0.5,0,0.9-0.5,0.9-1V12.6c1.3,5.1,2.6,10.3,3.9,15.4c0.2,0.5,0.6,1,1,1
	c0.9,0,1.8,0,2.7,0c0.5,0,0.9-0.5,0.9-1V1.2C88.2,0.7,87.7,0.3,87.2,0.3L87.2,0.3z M87.2,0.3"/>
</svg>
