<?xml version="1.0" encoding="utf-8"?>
<svg width="112" height="29" viewBox="0 0 112 29" fill="none" xmlns="http://www.w3.org/2000/svg">
  <path class="cls-1" d="M 65.66 28.268 L 36.323 28.268 C 33.959 28.279 31.768 27.033 30.563 24.997 C 28.705 22.228 28.502 18.667 30.035 15.706 C 31.384 13.031 34.099 11.319 37.095 11.258 C 38.061 9.924 39.526 9.025 41.155 8.772 C 43.187 3.981 47.868 0.844 53.077 0.791 C 57.813 0.844 62.152 3.443 64.431 7.596 C 68.225 7.502 71.719 9.659 73.328 13.094 C 75.158 16.743 74.859 21.091 72.544 24.449 C 70.983 26.74 68.428 28.159 65.66 28.268 Z M 37.108 15.45 C 35.97 15.466 34.889 15.939 34.103 16.76 C 33.338 17.601 32.961 18.724 33.069 19.858 C 33.246 22.057 35.033 23.779 37.24 23.873 L 64.463 23.873 C 67.578 23.788 70.12 21.355 70.348 18.247 C 70.504 16.545 69.922 14.858 68.757 13.611 C 67.709 12.417 66.217 11.708 64.628 11.65 C 64.28 11.633 63.926 11.678 63.598 11.785 L 62.026 12.178 L 61.499 10.732 C 60.211 7.55 57.275 5.341 53.862 4.982 C 49.643 4.673 45.782 7.341 44.57 11.393 L 44.043 13.094 L 42.351 12.828 C 41.435 12.695 40.557 13.255 40.287 14.138 L 39.628 15.706 L 37.934 15.45 L 37.108 15.45 Z" style="fill: rgb(48, 56, 70);"/>
</svg>