<?xml version="1.0" encoding="utf-8"?>
<!-- Generator: Adobe Illustrator 26.0.3, SVG Export Plug-In . SVG Version: 6.00 Build 0)  -->
<svg version="1.1" id="Camada_1" xmlns="http://www.w3.org/2000/svg" xmlns:xlink="http://www.w3.org/1999/xlink" x="0px" y="0px"
	 viewBox="0 0 1378 411" style="enable-background:new 0 0 1378 411;" xml:space="preserve">
<style type="text/css">
	.st0{fill:#18113C;}
	.st1{fill:none;stroke:#5F6498;stroke-width:2;}
	.st2{fill:none;stroke:#5F6498;}
	.st3{fill:none;stroke:#5F6498;stroke-width:1.5899;}
	.st4{fill:#5F6498;}
	.st5{fill:#FFB7B7;}
	.st6{fill:#2F2E41;}
	.st7{fill:#754FFE;}
	.st8{fill:#3F3D56;}
	.st9{fill:#CBCBCB;}
	.st10{fill:#E5E5E5;}
	.st11{opacity:0.2;enable-background:new    ;}
	.st12{fill:#E6E6E6;}
	.st13{fill:#FFFFFF;}
	.st14{fill:#CACACA;}
	.st15{fill:#FFB6B6;}
	.st16{fill:#FFB8B8;}
	.st17{fill:#F0F0F0;}
	.st18{fill:#FF6584;}
	.st19{fill:#CCCCCC;}
	.st20{fill:#A0616A;}
	.st21{fill:#D0CDE1;}
	.st22{fill:#F2F2F2;}
	.st23{fill:#9F616A;}
</style>
<rect y="1" class="st0" width="1378" height="411"/>
<path class="st1" d="M81,42c0,3.4-1.4,6.8-3.8,9.2C74.8,53.6,71.4,55,68,55s-6.8-1.4-9.2-3.8C56.4,48.8,55,45.4,55,42h13H81z"/>
<circle class="st2" cx="195.5" cy="378.5" r="6"/>
<path class="st3" d="M292.7,64.5l8,7.7c2.2,2.1,2.3,5.6,0.2,7.9l-7.7,8c-2.1,2.2-5.6,2.3-7.9,0.2l-8-7.7c-2.2-2.1-2.3-5.6-0.2-7.9
	l7.7-8C286.9,62.4,290.5,62.4,292.7,64.5z"/>
<path class="st2" d="M41.8,328.3l5.2-1.6c4-1.2,8.1,1.1,9.3,5l1.6,5.2c1.2,4-1.1,8.1-5,9.3l-5.2,1.6c-4,1.2-8.1-1.1-9.3-5l-1.6-5.2
	C35.6,333.7,37.8,329.5,41.8,328.3z"/>
<path class="st1" d="M1198.2,21.9c0,4.8-1.9,9.3-5.3,12.7c-3.4,3.4-7.9,5.3-12.7,5.3c-4.8,0-9.3-1.9-12.7-5.3
	c-3.4-3.4-5.3-7.9-5.3-12.7h18C1180.2,21.9,1198.2,21.9,1198.2,21.9z"/>
<circle class="st2" cx="1127" cy="311" r="7.5"/>
<path class="st2" d="M1308.2,93.3l8.2-3.3c2-0.8,4.4,0.2,5.2,2.2l3.3,8.2c0.8,2-0.2,4.4-2.2,5.2l-8.2,3.3c-2,0.8-4.4-0.2-5.2-2.2
	l-3.3-8.2C1305.1,96.5,1306.1,94.2,1308.2,93.3z"/>
<path class="st2" d="M1337.4,222.4l8.2-3.3c2-0.8,4.4,0.2,5.2,2.2l3.3,8.2c0.8,2-0.2,4.4-2.2,5.2l-8.2,3.3c-2,0.8-4.4-0.2-5.2-2.2
	l-3.3-8.2C1334.3,225.5,1335.3,223.2,1337.4,222.4z"/>
<path class="st4" d="M1285.7,320.4l6.5,4.3v-2.8l-4.4-2.6v-0.1l4.4-2.6v-2.8l-6.5,4.3V320.4z"/>
<path class="st4" d="M1298.1,310h-1.7l-3.1,17h1.7L1298.1,310z"/>
<path class="st4" d="M1305.7,320.4V318l-6.5-4.3v2.8l4.4,2.6v0.1l-4.4,2.6v2.8L1305.7,320.4z"/>
<g>
	<polygon class="st5" points="1388.5,771.4 1384.2,771.4 1382.2,754.9 1388.5,754.9 	"/>
	<path class="st6" d="M1389.6,775.6l-13.8,0v-0.2c0-3,2.4-5.4,5.4-5.4h0l8.4,0L1389.6,775.6z"/>
	<polygon class="st5" points="1370.1,771.4 1365.8,771.4 1363.8,754.9 1370.1,754.9 	"/>
	<path class="st6" d="M1371.2,775.6l-13.8,0v-0.2c0-3,2.4-5.4,5.4-5.4h0l8.4,0L1371.2,775.6z"/>
	<polygon class="st6" points="1360.3,663.1 1354.5,672.3 1364.3,765.4 1374.4,766 1376.6,685.6 1380.2,728.6 1378.7,766 
		1389.2,766.5 1395.4,712.2 1400.1,669.3 1390.9,660.8 	"/>
	<path class="st7" d="M1387.4,592.6l-15.8,0.6l-14.7,72.5c0,0,23.9,11.8,33.5,1.1l5.8-4.3L1387.4,592.6z"/>
	<path class="st8" d="M1387.4,592.6l13.9,8.1l-5.2,34l4.5,34.7l-14.7-2.4c0,0-3-32.3-1.1-42.5C1387,614.5,1387.4,592.6,1387.4,592.6
		z"/>
	<path class="st8" d="M1371.6,593.2l-16.7,8.6l1.3,37.7l-8.6,28.6c0,0,17.2,5.5,20.1-3.1C1370.6,656.3,1371.6,593.2,1371.6,593.2z"
		/>
	<path class="st5" d="M1394.1,678c2.1-1,3-3.6,2-5.7c-0.1-0.2-0.2-0.4-0.4-0.6l5-8.3l-4.3-4.3l-6.9,11.8c-1.8,1.5-2,4.2-0.5,6
		C1390.2,678.5,1392.4,678.9,1394.1,678L1394.1,678z"/>
	<path class="st8" d="M1394.2,605.4l6.6-5.3c0,0,6.3,5.1,6.1,10.1s1.7,31.2,1.7,31.2l-10.4,31.2l-7.7-6.2l9.1-24.4l-7.1-20.8
		L1394.2,605.4z"/>
	<path class="st5" d="M1351.2,679.5c-1.9-1.3-2.4-3.9-1.1-5.9c0.1-0.2,0.3-0.4,0.5-0.6l-3.8-8.9l4.8-3.6l5.2,12.6
		c1.6,1.7,1.4,4.4-0.3,6C1355,680.5,1352.8,680.6,1351.2,679.5L1351.2,679.5z"/>
	<path class="st8" d="M1361.4,607.6l-5.8-6.2c0,0-7,4.2-7.5,9.1c-0.5,4.9-6.1,30.7-6.1,30.7l5.9,32.4l8.5-5l-5.5-25.4l10-19.6
		L1361.4,607.6z"/>
	<circle class="st5" cx="1380" cy="577" r="10.8"/>
	<path class="st6" d="M1377.4,567.4c-1.1-0.2-2.2,0.3-3.2,0.8s-2.1,0.9-3.2,0.6c-1-0.4-1.7-1.2-2-2.2c-0.3-1-0.3-2.1-0.3-3.1
		l1.2,0.7l-0.8-1.3l11.2-1.2c3.4-0.4,7.2-0.6,9.9,1.5c1.3,1.2,2.3,2.8,2.8,4.5c2.2,6.9,4.8,16.9-6.7,18.9c-1.6-0.4,1-6.3,1-8
		c0-1.7-0.9-3.5-2.6-3.8l-1.2,1.7c0.8-1.1-2-4.6-2.6-5.2c-0.6-0.5-1.2-1.1-1.6-1.7C1378.6,568.5,1378.6,567.6,1377.4,567.4z"/>
	<path class="st9" d="M1427.1,775.8h-113.5c-0.4,0-0.6-0.3-0.6-0.6s0.3-0.6,0.6-0.6h113.5c0.4,0,0.6,0.3,0.6,0.6
		S1427.4,775.8,1427.1,775.8z"/>
</g>
<g>
	<circle class="st10" cx="171.9" cy="277" r="7.7"/>
	<path class="st11" d="M166.3,271.8c-1.7,3.9,0.1,8.4,4,10.1c3,1.3,6.5,0.5,8.7-1.9c-1.7,3.9-6.2,5.7-10.1,4
		c-3.9-1.7-5.7-6.2-4-10.1C165.3,273.2,165.7,272.5,166.3,271.8L166.3,271.8z"/>
	<polygon class="st9" points="171.9,277 172,277 172.3,298.7 171.5,298.7 	"/>
	<circle class="st10" cx="185.3" cy="264.6" r="9.2"/>
	<path class="st11" d="M192.1,258.4c2,4.7-0.2,10.1-4.9,12.1c-3.6,1.6-7.9,0.6-10.5-2.3c2,4.7,7.4,6.9,12.1,4.9
		c4.7-2,6.9-7.4,4.9-12.1C193.3,260,192.8,259.2,192.1,258.4L192.1,258.4z"/>
	<polygon class="st9" points="185.3,264.6 185.2,264.6 184.8,290.8 185.7,290.8 	"/>
	<path class="st9" d="M168.1,255.9l1.3-1c-1-0.1-1.4,0.4-1.5,0.8c-0.8-0.3-1.6,0.1-1.6,0.1l2.5,0.9
		C168.6,256.4,168.4,256.2,168.1,255.9z"/>
	<path class="st9" d="M165,247.3l1.3-1c-1-0.1-1.4,0.4-1.5,0.8c-0.8-0.3-1.6,0.1-1.6,0.1l2.5,0.9C165.5,247.8,165.3,247.5,165,247.3
		z"/>
	<path class="st9" d="M182.7,252.9l1.3-1c-1-0.1-1.4,0.4-1.5,0.8c-0.8-0.3-1.6,0.1-1.6,0.1l2.5,0.9
		C183.2,253.4,183,253.1,182.7,252.9z"/>
	<path class="st9" d="M181.5,290.7c0,0,0-1,1-0.9"/>
	<path class="st9" d="M188.2,290.7c0,0,0-1,1-0.9"/>
	<path class="st9" d="M186.2,290.7c0,0,0-1,1-0.9"/>
	<path class="st9" d="M179.7,290.7c0,0,0-1-1-0.9"/>
	<path class="st9" d="M183.9,290.8c0,0,0-1-1-0.9"/>
	<path class="st9" d="M168.6,298.6c0,0,0-1,1-0.9"/>
	<path class="st9" d="M175.3,298.6c0,0,0-1,1-0.9"/>
	<path class="st9" d="M173.3,298.6c0,0,0-1,1-0.9"/>
	<path class="st9" d="M166.8,298.6c0,0,0-1-1-0.9"/>
	<path class="st9" d="M171,298.7c0,0,0-1-1-0.9"/>
	<rect x="206.4" y="251.5" class="st8" width="12.9" height="1.1"/>
	<rect x="206.4" y="255.7" class="st8" width="12.9" height="1.1"/>
	<rect x="206.4" y="259.5" class="st8" width="12.9" height="1.1"/>
	<path class="st7" d="M201.6,252.1c0-0.8,0.7-1.5,1.5-1.5s1.5,0.7,1.5,1.5s-0.7,1.5-1.5,1.5l0,0l0,0
		C202.2,253.6,201.6,252.9,201.6,252.1z"/>
	<path class="st7" d="M201.6,256.3c0-0.8,0.7-1.5,1.5-1.5s1.5,0.7,1.5,1.5c0,0.8-0.7,1.5-1.5,1.5l0,0l0,0
		C202.2,257.8,201.6,257.1,201.6,256.3z"/>
	<path class="st7" d="M201.6,260.1c0-0.8,0.7-1.5,1.5-1.5s1.5,0.7,1.5,1.5c0,0.8-0.7,1.5-1.5,1.5l0,0l0,0
		C202.2,261.6,201.6,260.9,201.6,260.1z"/>
	<polygon class="st8" points="189,262.1 188.8,262 193.6,255.8 200,255.8 200,256 193.7,256 	"/>
	<rect x="138.6" y="265.1" class="st8" width="12.9" height="1.1"/>
	<rect x="138.6" y="269.4" class="st8" width="12.9" height="1.1"/>
	<rect x="138.6" y="273.1" class="st8" width="12.9" height="1.1"/>
	<path class="st7" d="M154.8,267.2L154.8,267.2c-0.8,0-1.5-0.7-1.5-1.5c0-0.8,0.7-1.5,1.5-1.5s1.5,0.7,1.5,1.5l0,0
		C156.2,266.5,155.6,267.2,154.8,267.2z"/>
	<path class="st7" d="M154.8,271.4L154.8,271.4c-0.8,0-1.5-0.7-1.5-1.5c0-0.8,0.7-1.5,1.5-1.5s1.5,0.7,1.5,1.5
		C156.2,270.8,155.6,271.4,154.8,271.4C154.8,271.4,154.8,271.4,154.8,271.4L154.8,271.4z"/>
	<path class="st7" d="M154.8,275.2L154.8,275.2c-0.8,0-1.5-0.7-1.5-1.5c0-0.8,0.7-1.5,1.5-1.5s1.5,0.7,1.5,1.5l0,0
		C156.2,274.5,155.6,275.2,154.8,275.2C154.8,275.2,154.8,275.2,154.8,275.2L154.8,275.2z"/>
	<polygon class="st8" points="168.8,275.8 164.1,269.6 157.9,269.6 157.9,269.4 164.2,269.4 164.2,269.4 169,275.6 	"/>
	<rect x="183.2" y="234.3" class="st8" width="12.9" height="1.1"/>
	<rect x="183.2" y="238.5" class="st8" width="12.9" height="1.1"/>
	<rect x="183.2" y="242.3" class="st8" width="12.9" height="1.1"/>
	<path class="st7" d="M178.4,234.8c0-0.8,0.7-1.5,1.5-1.5s1.5,0.7,1.5,1.5c0,0.8-0.7,1.5-1.5,1.5l0,0l0,0
		C179,236.3,178.4,235.7,178.4,234.8z"/>
	<path class="st7" d="M178.4,239.1c0-0.8,0.7-1.5,1.5-1.5s1.5,0.7,1.5,1.5c0,0.8-0.7,1.5-1.5,1.5l0,0l0,0
		C179,240.6,178.4,239.9,178.4,239.1z"/>
	<path class="st7" d="M178.4,242.8c0-0.8,0.7-1.5,1.5-1.5s1.5,0.7,1.5,1.5c0,0.8-0.7,1.5-1.5,1.5l0,0l0,0
		C179,244.3,178.4,243.7,178.4,242.8z"/>
	<polygon class="st8" points="165.8,244.9 165.6,244.8 170.4,238.5 176.7,238.5 176.7,238.8 170.5,238.8 	"/>
	<polygon class="st5" points="229.2,305.5 228.4,305.5 228,302.4 229.2,302.4 	"/>
	<path class="st6" d="M229.4,306.3l-2.6,0v0c0-0.6,0.5-1,1-1h0l1.6,0L229.4,306.3z"/>
	<polygon class="st5" points="225.7,305.5 224.9,305.5 224.5,302.4 225.7,302.4 	"/>
	<path class="st6" d="M225.9,306.3l-2.6,0v0c0-0.6,0.5-1,1-1h0l1.6,0L225.9,306.3z"/>
	<polygon class="st6" points="223.9,285.1 222.8,286.8 224.6,304.4 226.5,304.5 226.9,289.3 227.6,297.4 227.3,304.5 229.3,304.6 
		230.5,294.4 231.4,286.3 229.6,284.6 	"/>
	<path class="st7" d="M229,271.8l-3,0.1l-2.8,13.7c0,0,4.5,2.2,6.3,0.2l1.1-0.8L229,271.8z"/>
	<path class="st8" d="M229,271.8l2.6,1.5l-1,6.4l0.9,6.5l-2.8-0.5c0,0-0.6-6.1-0.2-8C228.9,275.9,229,271.8,229,271.8z"/>
	<path class="st8" d="M226,271.9l-3.1,1.6l0.2,7.1l-1.6,5.4c0,0,3.2,1,3.8-0.6C225.8,283.8,226,271.9,226,271.9z"/>
	<path class="st5" d="M230.2,287.9c0.4-0.2,0.6-0.7,0.4-1.1c0,0,0-0.1-0.1-0.1l1-1.6l-0.8-0.8l-1.3,2.2c-0.3,0.3-0.4,0.8-0.1,1.1
		C229.5,288,229.9,288.1,230.2,287.9L230.2,287.9z"/>
	<path class="st8" d="M230.2,274.2l1.3-1c0,0,1.2,1,1.2,1.9c0,0.9,0.3,5.9,0.3,5.9l-2,5.9l-1.5-1.2l1.7-4.6l-1.3-3.9L230.2,274.2z"
		/>
	<path class="st5" d="M222.1,288.2c-0.4-0.2-0.5-0.7-0.2-1.1c0,0,0.1-0.1,0.1-0.1l-0.7-1.7l0.9-0.7l1,2.4c0.3,0.3,0.3,0.8-0.1,1.1
		C222.8,288.4,222.4,288.4,222.1,288.2L222.1,288.2z"/>
	<path class="st8" d="M224.1,274.6l-1.1-1.2c0,0-1.3,0.8-1.4,1.7c-0.1,0.9-1.2,5.8-1.2,5.8l1.1,6.1l1.6-0.9l-1-4.8l1.9-3.7
		L224.1,274.6z"/>
	<circle class="st5" cx="227.6" cy="268.8" r="2"/>
	<path class="st6" d="M227.1,267c-0.2,0-0.4,0.1-0.6,0.1s-0.4,0.2-0.6,0.1c-0.2-0.1-0.3-0.2-0.4-0.4c0-0.2-0.1-0.4-0.1-0.6l0.2,0.1
		l-0.1-0.2l2.1-0.2c0.6-0.1,1.4-0.1,1.9,0.3c0.3,0.2,0.4,0.5,0.5,0.9c0.4,1.3,0.9,3.2-1.3,3.6c-0.3-0.1,0.2-1.2,0.2-1.5
		c0-0.3-0.2-0.7-0.5-0.7l-0.2,0.3c0.1-0.2-0.4-0.9-0.5-1c-0.1-0.1-0.2-0.2-0.3-0.3C227.3,267.2,227.3,267.1,227.1,267z"/>
	<path class="st9" d="M236.4,306.4H215c-0.1,0-0.1-0.1-0.1-0.1s0.1-0.1,0.1-0.1h21.4c0.1,0,0.1,0.1,0.1,0.1S236.5,306.4,236.4,306.4
		z"/>
</g>
<g>
	<path class="st12" d="M315.3,186.7h-48.4c-0.9,0-1.6-0.7-1.6-1.6v-39.4c0-0.9,0.7-1.6,1.6-1.6h48.4c0.9,0,1.6,0.7,1.6,1.6v39.4
		C316.9,186,316.2,186.7,315.3,186.7z"/>
	<path class="st13" d="M310.6,185.6H268c-0.9,0-1.6-0.7-1.6-1.6v-37.2c0-0.9,0.7-1.6,1.6-1.6h46.2c0.9,0,1.6,0.7,1.6,1.6v33.6
		C315.8,183.3,313.5,185.6,310.6,185.6L310.6,185.6z"/>
	<path class="st7" d="M298.9,153.5h-19.5c-0.2,0-0.4-0.2-0.4-0.4s0.2-0.4,0.4-0.4h19.5c0.2,0,0.4,0.2,0.4,0.4
		S299.1,153.5,298.9,153.5L298.9,153.5z"/>
	<path class="st12" d="M308.7,158h-29.3c-0.2,0-0.4-0.2-0.4-0.4s0.2-0.4,0.4-0.4h29.3c0.2,0,0.4,0.2,0.4,0.4S309,158,308.7,158
		L308.7,158z"/>
	<path class="st12" d="M308.7,162.5h-29.3c-0.2,0-0.4-0.2-0.4-0.4s0.2-0.4,0.4-0.4h29.3c0.2,0,0.4,0.2,0.4,0.4
		S309,162.5,308.7,162.5L308.7,162.5z"/>
	<path class="st12" d="M308.7,167h-29.3c-0.2,0-0.4-0.2-0.4-0.4c0-0.2,0.2-0.4,0.4-0.4h29.3c0.2,0,0.4,0.2,0.4,0.4
		S309,167,308.7,167L308.7,167z"/>
	<path class="st12" d="M308.7,171.5h-29.3c-0.2,0-0.4-0.2-0.4-0.4c0-0.2,0.2-0.4,0.4-0.4h29.3c0.2,0,0.4,0.2,0.4,0.4
		C309.2,171.3,309,171.5,308.7,171.5L308.7,171.5z"/>
	<path class="st7" d="M307.4,178.6c-1.2,0-2.1-1-2.1-2.1c0-1.2,1-2.1,2.1-2.1c1.2,0,2.1,1,2.1,2.1l0,0
		C309.5,177.6,308.6,178.6,307.4,178.6z"/>
	<path class="st13" d="M308.6,176.4l-0.6-0.9c-0.1-0.1-0.2-0.1-0.2,0c-0.1,0.1-0.1,0.2,0,0.2l0,0l0.4,0.6h-1.5
		c-0.1,0-0.2,0.1-0.2,0.2c0,0.1,0.1,0.2,0.2,0.2h1.5l-0.4,0.6c-0.1,0.1,0,0.2,0,0.2c0.1,0.1,0.2,0,0.2,0l0.6-0.9
		C308.7,176.5,308.7,176.4,308.6,176.4z"/>
	<path class="st14" d="M318.9,138.2h-55.7c-0.1,0-0.2-0.1-0.2-0.2c0-0.1,0.1-0.2,0.2-0.2h55.7c0.1,0,0.2,0.1,0.2,0.2
		C319.1,138.1,319,138.2,318.9,138.2z"/>
	<path class="st15" d="M270.2,180.8c0.3-0.3,0.4-0.7,0.1-1.1c0,0-0.1-0.1-0.1-0.1l-0.5-4l-1.5,0.3l0.8,3.8c-0.2,0.3-0.2,0.8,0.2,1.1
		C269.6,181,270,181,270.2,180.8L270.2,180.8z"/>
	<path class="st7" d="M270.1,176.3l-1.7,1.1c0,0-0.1,0.6-0.2-0.9c0-0.2,0.1-0.4,0.1-0.6c0-0.2-0.6-0.3-0.6-0.5
		c0-0.1,0.1-0.3,0.1-0.4c0-0.2,0-0.4,0-0.6c0-0.2-0.2-0.3-0.2-0.4c0-0.2,0.1-0.4,0.1-0.5c-0.1-1.2,0.2-4.1,0.2-4.1
		c0-0.1-0.1-0.3-0.2-0.4l0.1-0.3l-0.1-0.5c-0.1-0.7,0.1-1.3,0.4-1.9l0,0l0.4-0.3l2,3.3C269.7,172.1,269.2,173.2,270.1,176.3z"/>
	<polygon class="st15" points="268.7,201.2 269.8,201.2 270.3,197.2 268.7,197.2 	"/>
	<path class="st6" d="M268.4,200.5l1.6-0.1v0.7l1.6,1.1c0.2,0.1,0.2,0.4,0.1,0.6c-0.1,0.1-0.2,0.2-0.4,0.2h-1.9l-0.3-0.7l-0.1,0.7
		h-0.7L268.4,200.5z"/>
	<polygon class="st15" points="274.5,201.2 275.5,201.2 276,197.2 274.5,197.2 	"/>
	<path class="st6" d="M274.2,200.5l1.6-0.1v0.7l1.6,1.1c0.2,0.1,0.2,0.4,0.1,0.6c-0.1,0.1-0.2,0.2-0.4,0.2h-1.9l-0.3-0.7l-0.1,0.7
		H274L274.2,200.5z"/>
	<path class="st6" d="M268.3,197.8L268.3,197.8l0.2-9.4c-0.3-0.5-0.3-1.1,0-1.6l0-0.1l-0.1-0.3c-0.1-0.4-0.1-0.9,0.1-1.3l0.2-6
		c-0.7-4.3,2.5-7,2.5-7h4.7l1,3.5c0.7,6.5,0.5,15.8-0.5,21.9l0,0c0.1,0.1,0.2,0.2,0.1,0.3c0,0.1-0.2,0.2-0.3,0.2l-2.5-0.1
		c-0.1-0.1-0.2-0.2-0.1-0.3c0-0.1,0.2-0.2,0.3-0.2l0.2,0.1l-0.2-0.4c-0.2-0.4-0.2-0.9,0.1-1.3l0,0l0-0.8l0,0
		c-0.3-0.3-0.4-0.7-0.2-1.1l0.2-0.5l-0.2-5.1l0-1.1l-0.1-1.3l-0.4-5.8l-1.4,7.1l-1.5,10.7c0.1,0.1,0.1,0.2,0.1,0.3
		c0,0.1-0.1,0.2-0.3,0.2h-2c-0.1,0-0.3-0.1-0.3-0.3c0,0,0,0,0-0.1C268.1,197.9,268.2,197.8,268.3,197.8z"/>
	<path class="st15" d="M279.7,179.2c0.3-0.3,0.2-0.8-0.1-1.1c0,0-0.1-0.1-0.1-0.1l-1.2-3.8l-1.4,0.6l1.5,3.6c-0.2,0.4,0,0.8,0.4,1
		C279.1,179.6,279.5,179.5,279.7,179.2L279.7,179.2z"/>
	<path class="st7" d="M274.7,167.1c0,0,1.4,4.9,1.3,5.4c-0.1,1-6.5,4.1-6.9,2.8l0.1-0.5c-0.2-0.5,1.2-2.4,1.3-2.6
		c0.1-0.3-0.3-1.4-0.3-1.4s0.3-0.9,0.2-1.5c0-0.6-0.2-0.5-0.7-0.9c-0.5-0.4-1.3-2-1.3-2s0.4-1.6,0.4-1.9c0-0.3,1.5-0.9,1.7-1
		c0.1-0.1,0.1-0.2,0.2-0.3c0-0.1,0-0.2,0.1-0.3c0-0.1,0.1,0,0.1-0.1c0-0.1,0-0.1,0-0.2c0-0.1,0.1-0.1,0.1-0.2
		c0.1-0.3,0.3-0.6,0.3-0.6c0.1,0,3,0.4,3,0.4c0.2,0.2,0.3,0.5,0.5,0.7c0.3,0.3,1.8,1.1,1.8,1.1L274.7,167.1z"/>
	<path class="st7" d="M278.6,175.3c-0.2,0.2-1.3,1.3-1.4,1c0-0.3-0.1-0.3-0.3-0.4c-0.2-0.1-0.2-0.1-0.2-0.5c0-0.3-0.5-0.6-0.4-0.8
		c0-0.1,0,0,0-0.1c0-0.1-0.1-0.6-0.3-0.7c-0.2-0.1-0.5-0.2-0.3-0.4c0.1-0.2-1.3-7-1.3-7l1.3-2.5l0.9-0.1c0,0,0.3,0.1,0.3,1.5
		c0,0.1,0.1,0.2,0.1,0.3c0,0.1-0.1,0.1-0.1,0.1c0,0,0,0,0,0c0,0.1,0.2,0.1,0.2,0.2c0,0.1,0.1,0.8,0.1,0.9c0,0.1,0,0.2,0,0.3
		c0.1,1.2,0.2,1.3,0.2,1.7c0.1,0.6,0.6,4.1,0.6,4.1s0.4,0.1,0.4,0.4c0,0.3,0.4,1,0.2,1.3C278.5,175.2,278.9,175.1,278.6,175.3z"/>
	<circle class="st16" cx="272.5" cy="159.5" r="2.1"/>
	<path class="st6" d="M267.9,164c-0.5-0.2-0.9-0.3-1.4-0.5c0.1-0.1,0.2-0.2,0.3-0.3c0.4-0.4,1-0.4,1.6-0.5c0.5-0.1,1.1-0.4,1.3-0.9
		c0.2-0.5-0.1-1.1-0.3-1.7c-0.3-0.8-0.2-1.6,0.1-2.4c0.3-0.8,1-1.3,1.8-1.5c0.8-0.2,1.7,0.1,2.2,0.8c0.7-0.2,1.3,0.1,1.6,0.7
		c0.1,0.3,0.1,0.6-0.1,0.9c-0.2,0.3-0.5,0.4-0.8,0.2l0.2-0.4c-0.5,0.2-0.8,1-0.7,1.6c0.1,0.5,0.4,1,0.7,1.4c0.3,0.4,0.6,0.8,0.8,1.3
		c0.2,0.7-0.1,1.5-0.5,2.1c-0.5,0.6-1.1,1-1.8,1.3c-0.5,0.2-1,0.4-1.6,0.5c0.1-0.2,0.2-0.4,0.3-0.6l-1.2,0.7c-0.2,0-0.4,0-0.7,0
		c-0.7,0-1.3-0.1-1.9-0.3c-0.6-0.3-1.1-0.7-1.3-1.4c-0.1-0.2-0.1-0.4-0.1-0.6C266.8,164.2,267.3,164.1,267.9,164L267.9,164z"/>
	<path class="st17" d="M288.6,203.1h-4l0,0c-0.1-0.1-0.1-0.2-0.1-0.3c-0.4-0.9-0.6-1.9-0.7-2.8l-0.1-0.7c0-0.2,0.1-0.4,0.3-0.5
		c0.1,0,0.2,0,0.3,0.1c0.6,0.4,1.2,0.9,1.8,1.3c0.2,0.2,0.5,0.4,0.7,0.6c0-0.1,0-0.2,0.1-0.4c0-0.2,0.3-0.4,0.5-0.3
		c0.1,0,0.2,0.1,0.3,0.2l0.5,0.7c0.3,0.5,0.6,1.1,0.6,1.7c0,0,0,0,0,0C288.6,202.9,288.6,203,288.6,203.1L288.6,203.1z"/>
	<path class="st14" d="M292.5,203.2l-37.7,0c-0.1,0-0.1-0.1-0.1-0.1c0-0.1,0.1-0.1,0.1-0.1l37.7,0c0.1,0,0.1,0.1,0.1,0.1
		C292.7,203.2,292.6,203.2,292.5,203.2z"/>
	<ellipse class="st8" cx="265.4" cy="134.9" rx="1" ry="1"/>
	<ellipse class="st8" cx="268.9" cy="134.9" rx="1" ry="1"/>
	<ellipse class="st8" cx="272.4" cy="134.9" rx="1" ry="1"/>
	<path class="st8" d="M276.4,135.8C276.4,135.8,276.3,135.7,276.4,135.8l-0.8-0.7c0,0,0-0.1,0-0.2l0.7-0.7c0,0,0.1,0,0.2,0
		c0,0,0,0.1,0,0.2l-0.6,0.6l0.6,0.6C276.5,135.6,276.5,135.7,276.4,135.8C276.5,135.7,276.4,135.8,276.4,135.8z"/>
	<path class="st8" d="M277.6,135.8C277.5,135.8,277.5,135.7,277.6,135.8c-0.1-0.1-0.1-0.2-0.1-0.2l0.6-0.6l-0.6-0.6c0,0,0-0.1,0-0.2
		c0,0,0.1,0,0.2,0l0.7,0.7c0,0,0,0.1,0,0.2L277.6,135.8C277.6,135.7,277.6,135.8,277.6,135.8z"/>
	<path class="st8" d="M313.3,134H312c-0.1,0-0.3,0.1-0.3,0.3v1.3c0,0.1,0.1,0.3,0.3,0.3h1.3c0.1,0,0.3-0.1,0.3-0.3v-1.3
		C313.5,134.1,313.4,134,313.3,134z"/>
	<path class="st8" d="M310.2,134h-1.3c-0.1,0-0.3,0.1-0.3,0.3v1.3c0,0.1,0.1,0.3,0.3,0.3h1.3c0.1,0,0.3-0.1,0.3-0.3v-1.3
		C310.4,134.1,310.3,134,310.2,134z"/>
	<path class="st8" d="M316.2,134.1h-1.3c-0.1,0-0.3,0.1-0.3,0.3v1.3c0,0.1,0.1,0.3,0.3,0.3h1.3c0.1,0,0.3-0.1,0.3-0.3v-1.3
		C316.5,134.2,316.3,134.1,316.2,134.1z"/>
	<path class="st8" d="M297.1,134.6h-10.1c-0.2,0-0.3,0.1-0.3,0.3c0,0.2,0.1,0.3,0.3,0.3h10.1c0.2,0,0.3-0.1,0.3-0.3
		C297.4,134.7,297.2,134.6,297.1,134.6z"/>
</g>
<g>
	<path class="st8" d="M183.7,119.3h-80.3c-1.4,0-2.5,1.1-2.5,2.5v42.3c0,1.4,1.1,2.5,2.5,2.5h80.3c1.4,0,2.5-1.1,2.5-2.5v-42.3
		C186.2,120.4,185.1,119.3,183.7,119.3z M186,164.2c0,1.3-1,2.3-2.3,2.3h-80.3c-1.3,0-2.3-1-2.3-2.3v-42.3c0-1.3,1-2.3,2.3-2.3h80.3
		c1.3,0,2.3,1,2.3,2.3V164.2z"/>
	<path class="st8" d="M179.8,126.2h-72.4c-0.1,0-0.1-0.1-0.1-0.1s0.1-0.1,0.1-0.1h72.4c0.1,0,0.1,0.1,0.1,0.1
		S179.8,126.2,179.8,126.2z"/>
	<path class="st8" d="M127.9,161.5c-0.1,0-0.1-0.1-0.1-0.1v-39.4c0-0.1,0.1-0.1,0.1-0.1c0.1,0,0.1,0.1,0.1,0.1v39.4
		C128,161.5,127.9,161.5,127.9,161.5z"/>
	<path class="st8" d="M145.9,161.5c-0.1,0-0.1-0.1-0.1-0.1v-39.4c0-0.1,0.1-0.1,0.1-0.1s0.1,0.1,0.1,0.1v39.4
		C146,161.5,146,161.5,145.9,161.5z"/>
	<path class="st8" d="M164,161.5c-0.1,0-0.1-0.1-0.1-0.1v-39.4c0-0.1,0.1-0.1,0.1-0.1s0.1,0.1,0.1,0.1v39.4
		C164.1,161.5,164.1,161.5,164,161.5z"/>
	<path class="st7" d="M116.3,138.5h-4.4c-0.3,0-0.5-0.2-0.5-0.5v-5.2c0-0.3,0.2-0.5,0.5-0.5h4.4c0.3,0,0.5,0.2,0.5,0.5v5.2
		C116.8,138.3,116.5,138.5,116.3,138.5z"/>
	<path class="st7" d="M122.5,153.2h-4.4c-0.3,0-0.5-0.2-0.5-0.5v-5.2c0-0.3,0.2-0.5,0.5-0.5h4.4c0.3,0,0.5,0.2,0.5,0.5v5.2
		C123,153,122.8,153.2,122.5,153.2z"/>
	<path class="st7" d="M136.6,141.6h-4.4c-0.3,0-0.5-0.2-0.5-0.5v-5.2c0-0.3,0.2-0.5,0.5-0.5h4.4c0.3,0,0.5,0.2,0.5,0.5v5.2
		C137.1,141.4,136.9,141.6,136.6,141.6z"/>
	<path class="st7" d="M154.9,136h-4.4c-0.3,0-0.5-0.2-0.5-0.5v-5.2c0-0.3,0.2-0.5,0.5-0.5h4.4c0.3,0,0.5,0.2,0.5,0.5v5.2
		C155.4,135.8,155.2,136,154.9,136z"/>
	<path class="st7" d="M171.8,136h-4.4c-0.3,0-0.5-0.2-0.5-0.5v-5.2c0-0.3,0.2-0.5,0.5-0.5h4.4c0.3,0,0.5,0.2,0.5,0.5v5.2
		C172.3,135.8,172.1,136,171.8,136z"/>
	<path class="st12" d="M179.5,137.4h-4.4c-0.3,0-0.5-0.2-0.5-0.5v-5.2c0-0.3,0.2-0.5,0.5-0.5h4.4c0.3,0,0.5,0.2,0.5,0.5v5.2
		C180.1,137.2,179.8,137.4,179.5,137.4z"/>
	<path class="st12" d="M176.1,146.7h-4.4c-0.3,0-0.5-0.2-0.5-0.5V141c0-0.3,0.2-0.5,0.5-0.5h4.4c0.3,0,0.5,0.2,0.5,0.5v5.2
		C176.6,146.4,176.4,146.7,176.1,146.7z"/>
	<path class="st18" d="M161.2,144.7h-4.4c-0.3,0-0.5-0.2-0.5-0.5V139c0-0.3,0.2-0.5,0.5-0.5h4.4c0.3,0,0.5,0.2,0.5,0.5v5.2
		C161.8,144.5,161.5,144.7,161.2,144.7z"/>
	<path class="st12" d="M152.7,146.7h-4.4c-0.3,0-0.5-0.2-0.5-0.5V141c0-0.3,0.2-0.5,0.5-0.5h4.4c0.3,0,0.5,0.2,0.5,0.5v5.2
		C153.3,146.4,153,146.7,152.7,146.7z"/>
	<path class="st12" d="M134.4,154.8h-4.4c-0.3,0-0.5-0.2-0.5-0.5v-5.2c0-0.3,0.2-0.5,0.5-0.5h4.4c0.3,0,0.5,0.2,0.5,0.5v5.2
		C135,154.5,134.7,154.8,134.4,154.8z"/>
	<path class="st18" d="M112.3,148h-4.4c-0.3,0-0.5-0.2-0.5-0.5v-5.2c0-0.3,0.2-0.5,0.5-0.5h4.4c0.3,0,0.5,0.2,0.5,0.5v5.2
		C112.8,147.7,112.6,148,112.3,148z"/>
	<path class="st12" d="M124.6,138.5h-4.4c-0.3,0-0.5-0.2-0.5-0.5v-5.2c0-0.3,0.2-0.5,0.5-0.5h4.4c0.3,0,0.5,0.2,0.5,0.5v5.2
		C125.2,138.3,124.9,138.5,124.6,138.5z"/>
	<path class="st19" d="M121,124.2h-6.8c-0.3,0-0.5-0.2-0.5-0.5c0-0.3,0.2-0.5,0.5-0.5h6.8c0.3,0,0.5,0.2,0.5,0.5
		C121.5,124,121.3,124.2,121,124.2z"/>
	<path class="st19" d="M140.3,124.2h-6.8c-0.3,0-0.5-0.2-0.5-0.5c0-0.3,0.2-0.5,0.5-0.5h6.8c0.3,0,0.5,0.2,0.5,0.5
		C140.8,124,140.6,124.2,140.3,124.2z"/>
	<path class="st19" d="M158.4,124.2h-6.8c-0.3,0-0.5-0.2-0.5-0.5c0-0.3,0.2-0.5,0.5-0.5h6.8c0.3,0,0.5,0.2,0.5,0.5
		C158.8,124,158.6,124.2,158.4,124.2z"/>
	<path class="st19" d="M175.2,124.2h-6.8c-0.3,0-0.5-0.2-0.5-0.5c0-0.3,0.2-0.5,0.5-0.5h6.8c0.3,0,0.5,0.2,0.5,0.5
		C175.7,124,175.5,124.2,175.2,124.2z"/>
	<path class="st16" d="M105.8,159.2c-0.7-0.1-1.1-0.7-1.1-1.3c0-0.1,0-0.1,0-0.2l-3.1-2.9l1.6-0.4l3,2.4c0.6,0.2,1,0.9,0.7,1.5
		C106.9,159,106.3,159.3,105.8,159.2L105.8,159.2z"/>
	<polygon class="st16" points="110,180.3 111.5,180.3 112.2,174.7 110,174.7 	"/>
	<path class="st6" d="M114.3,181.7l-4.6,0l0,0l0-1.8l0,0l2.8,0C113.5,179.9,114.3,180.7,114.3,181.7L114.3,181.7L114.3,181.7z"/>
	<polygon class="st16" points="100,179.3 101.4,179.7 103.5,174.4 101.4,173.8 	"/>
	<path class="st6" d="M103.8,181.7l-4.5-1.2l0,0l0.5-1.7l0,0l2.7,0.7C103.4,179.8,104,180.8,103.8,181.7L103.8,181.7L103.8,181.7z"
		/>
	<path class="st6" d="M111.9,179.3h-2.2c-0.3,0-0.5-0.2-0.6-0.5l-1.4-14.1c0-0.2-0.2-0.4-0.5-0.4c-0.2,0-0.3,0.1-0.4,0.3l-3.9,13.2
		c-0.1,0.3-0.4,0.5-0.7,0.4l-2.1-0.5c-0.3-0.1-0.5-0.4-0.4-0.7c0,0,0,0,0,0c0-0.1,3.4-13.3,3.4-13.4c0.8-5.6,1.7-7.1,2.2-7.9
		c0-0.1,0.1-0.1,0.1-0.2c0-0.1,0.3-0.8,0.5-1.3c0-0.2,0.1-0.3,0.3-0.4c2.1-1.1,4.5-0.3,5.2-0.1c0.1,0,0.2,0.1,0.3,0.2
		c2.1,3.1,1.1,21.2,0.8,24.8C112.4,179,112.2,179.3,111.9,179.3z"/>
	<circle class="st16" cx="106.1" cy="140.6" r="2.9"/>
	<path class="st19" d="M105.8,154.7L105.8,154.7c-0.1-0.1-4-3.9-3.5-7.4c0.2-1.5,1.4-2.5,3.5-2.8c1.6-0.2,3.1,0.7,3.6,2.3l2.1,7.1
		L105.8,154.7z"/>
	<path class="st19" d="M103.8,157.4l-2.8-2.8c-0.4-0.4-0.5-0.9-0.4-1.5l1.4-5.5c0.2-0.7,0.8-1.1,1.5-0.9c0,0,0.1,0,0.1,0
		c0.6,0.2,1,0.9,0.8,1.5l-1.4,4.8l2.3,2.5L103.8,157.4z"/>
	<path class="st16" d="M118.7,148c-0.3,0.6-1,0.9-1.6,0.6c-0.1,0-0.1-0.1-0.2-0.1l-3.7,1.9l0.2-1.6l3.3-2c0.4-0.5,1.2-0.6,1.7-0.2
		C118.8,146.9,119,147.5,118.7,148L118.7,148z"/>
	<path class="st19" d="M116.6,149.2l-3.6,1.6c-0.5,0.2-1.1,0.1-1.5-0.2l-4.6-3.3c-0.6-0.4-0.7-1.2-0.3-1.7c0,0,0,0,0-0.1
		c0.4-0.5,1.2-0.6,1.7-0.2l4,3.1l3.1-1.2L116.6,149.2z"/>
	<path class="st6" d="M106.6,141.5c0.4-0.5,1-0.5,1.5-0.8c0.7-0.4,0.9-1.3,0.7-2c-0.2-0.7-0.8-1.3-1.5-1.6c-0.7-0.3-1.5-0.3-2.3-0.1
		c-1.1,0.2-2.2,0.7-2.9,1.6c-0.7,0.9-0.9,2.2-0.2,3.2c0.3,0.4,0.7,0.8,0.8,1.3c0.1,0.7-0.3,1.3-0.8,1.8c-0.6,0.5-1.2,1-1.7,1.6
		c-0.5,0.6-0.8,1.4-0.6,2.2c0.2,0.6,0.7,1.1,1.4,1.3c0.6,0.2,1.3,0.3,1.9,0.3c0.6,0,1.3,0,1.8-0.3c0.6-0.4,0.9-1.1,0.9-1.7
		c0-0.7-0.2-1.3-0.5-1.9c-0.2-0.4-0.4-0.7-0.5-1.1c-0.1-0.4-0.1-0.8,0.1-1.2c0.2-0.4,0.6-0.6,1-0.7c0,0,0,0,0.1,0
		c0.5-0.1,0.8-0.5,0.8-1c0,0,0,0,0,0C106.5,142,106.5,141.7,106.6,141.5z"/>
	<polygon class="st20" points="145.8,180.5 144.3,180.5 143.6,174.8 145.8,174.8 	"/>
	<path class="st6" d="M143.2,180.1h2.8l0,0v1.8l0,0h-4.6l0,0l0,0C141.5,180.8,142.3,180.1,143.2,180.1L143.2,180.1z"/>
	<polygon class="st20" points="156.4,178.8 155.1,179.4 152.1,174.6 154,173.7 	"/>
	<path class="st6" d="M153.9,179.5l2.6-1.2l0,0l0.7,1.6l0,0l-4.2,1.9l0,0l0,0C152.6,180.9,153,179.9,153.9,179.5z"/>
	<path class="st20" d="M152.1,161.4c0.5-0.4,0.6-1.2,0.2-1.7c0-0.1-0.1-0.1-0.1-0.2l1.7-3.9l-2.2,0.4l-1.3,3.7
		c-0.4,0.5-0.3,1.3,0.2,1.7C151.1,161.7,151.7,161.7,152.1,161.4z"/>
	<path class="st6" d="M145.7,179h-1.4c-0.3,0-0.5-0.2-0.5-0.5l-0.8-20.4c0-0.3,0.2-0.6,0.5-0.6c0,0,0.1,0,0.1,0l8.1,0.9
		c0.3,0,0.5,0.3,0.5,0.5l0.2,9c0,0,0,0.1,0,0.1l3.3,8.6c0.1,0.3,0,0.6-0.3,0.7c0,0,0,0,0,0l-1.4,0.5c-0.3,0.1-0.5,0-0.7-0.3
		l-4.1-7.9c0,0,0-0.1,0-0.1l-0.7-3.4c0-0.2-0.3-0.4-0.5-0.3c-0.2,0-0.3,0.2-0.3,0.4l-1.4,12.3C146.2,178.8,145.9,179,145.7,179z"/>
	<circle class="st20" cx="146.4" cy="139.2" r="2.9"/>
	<path class="st7" d="M148.4,159.9c-2,0-3.9-0.6-5.6-1.7l0,0l0,0l1.1-13.1c0.1-0.9,0.8-1.6,1.7-1.7c1.5-0.1,3.4,0,4.5,0.8
		c1.6,1.2,2.3,3,2.1,4.9c-0.5,4,0.1,9.3,0.1,9.9l0,0l0,0C151,159.6,149.7,159.9,148.4,159.9z"/>
	<path class="st7" d="M152.3,159c-0.2,0-0.3-0.1-0.4-0.2l-0.6-0.7c-0.1-0.2-0.2-0.4-0.1-0.6l1.5-5l-2.2-4.7
		c-0.1-0.2-0.1-0.5-0.1-0.7c0.1-0.6,0.7-0.9,1.3-0.8c0.3,0.1,0.5,0.3,0.7,0.5l3,4.9c0.2,0.4,0.3,0.9,0.1,1.3l-2.5,5.5
		C152.8,158.9,152.6,159,152.3,159C152.4,159,152.3,159,152.3,159z"/>
	<path class="st20" d="M131.6,149.6c0.5,0.4,1.3,0.3,1.7-0.2c0-0.1,0.1-0.1,0.1-0.2l4.2,0.5l-1-2l-3.9-0.2c-0.6-0.3-1.3,0-1.6,0.6
		C131,148.6,131.1,149.2,131.6,149.6z"/>
	<path class="st7" d="M140.9,150.7c-0.1,0-0.1,0-0.2,0l-6.7-0.9c-0.2,0-0.4-0.2-0.5-0.4c0,0,0-0.1,0-0.1h0c-0.1-0.2,0-0.4,0.1-0.5
		l0.6-0.9c0.1-0.2,0.3-0.3,0.6-0.3h0l5.8,0l4.3-3.9c0.2-0.2,0.5-0.3,0.7-0.3c0.6,0,1.2,0.5,1.2,1.1c0,0.3-0.1,0.7-0.3,0.9l-4.3,4.8
		C141.8,150.5,141.4,150.7,140.9,150.7z"/>
	<path class="st6" d="M146.7,141.8c0.3-0.6,0.5-1.4,0-1.9c-0.3-0.3-0.7-0.3-1.1-0.3c-1.1-0.1-2.2-0.6-2.8-1.6
		c-0.5-1-0.2-2.4,0.8-2.8c0.7-0.3,1.5-0.1,2.2,0.1l2.2,0.6c0.6,0.2,1.3,0.4,1.8,0.9c0.7,0.8,0.7,2.1,0.1,2.9
		c-0.6,0.9-1.5,1.8-2.5,2.1L146.7,141.8z"/>
	<path class="st8" d="M176.4,181.9H88.1c-0.1,0-0.1-0.1-0.1-0.1c0-0.1,0.1-0.1,0.1-0.1c0,0,0,0,0,0h88.3c0.1,0,0.1,0.1,0.1,0.1
		C176.6,181.8,176.5,181.9,176.4,181.9C176.4,181.9,176.4,181.9,176.4,181.9z"/>
</g>
<g>
	<path class="st8" d="M1143.3,147l-0.1-0.1c0,0-3-1.2-4.5-3.8c-1.4-2.6-0.7-5.8-0.7-5.8l0-0.1l0.1,0.1c0,0,3,1.2,4.5,3.8
		c1.4,2.6,0.7,5.8,0.7,5.8L1143.3,147z M1139,143.1c1.2,2.2,3.6,3.3,4.2,3.6c0.1-0.6,0.5-3.3-0.7-5.5c-1.2-2.2-3.6-3.3-4.2-3.6
		C1138.1,138.2,1137.8,140.8,1139,143.1z"/>
	<path class="st21" d="M1139.8,142.3c2.5,1.5,3.5,4.6,3.5,4.6s-3.1,0.6-5.7-1c-2.5-1.5-3.5-4.6-3.5-4.6S1137.3,140.7,1139.8,142.3z"
		/>
	<path class="st8" d="M1221,102.5h-28.3V102h-12.8v0.6h-28.4c-1.1,0-1.9,0.9-1.9,1.9l0,0v38.7c0,1.1,0.9,1.9,1.9,1.9h69.5
		c1.1,0,1.9-0.9,1.9-1.9l0,0v-38.7C1222.9,103.4,1222.1,102.5,1221,102.5C1221,102.5,1221,102.5,1221,102.5z"/>
	<rect x="1152.1" y="105.9" class="st7" width="68.2" height="38.5"/>
	<circle class="st7" cx="1186.2" cy="104.2" r="0.7"/>
	<path class="st8" d="M1216.4,110.8h-3.2v-3.2h3.2V110.8z M1213.3,110.7h3v-3h-3V110.7z"/>
	<path class="st8" d="M1224.8,143.7h-6.7v-0.5c0-0.1,0-0.1-0.1-0.1l0,0h-2.3c-0.1,0-0.1,0-0.1,0.1l0,0v0.5h-1.4v-0.5
		c0-0.1,0-0.1-0.1-0.1l0,0h-2.3c-0.1,0-0.1,0-0.1,0.1l0,0v0.5h-1.4v-0.5c0-0.1,0-0.1-0.1-0.1l0,0h-2.3c-0.1,0-0.1,0-0.1,0.1l0,0v0.5
		h-1.4v-0.5c0-0.1,0-0.1-0.1-0.1l0,0h-2.3c-0.1,0-0.1,0-0.1,0.1l0,0v0.5h-1.4v-0.5c0-0.1,0-0.1-0.1-0.1l0,0h-2.3
		c-0.1,0-0.1,0-0.1,0.1l0,0v0.5h-1.4v-0.5c0-0.1,0-0.1-0.1-0.1l0,0h-2.3c-0.1,0-0.1,0-0.1,0.1l0,0v0.5h-1.4v-0.5
		c0-0.1,0-0.1-0.1-0.1l0,0h-17.9c-0.1,0-0.1,0-0.1,0.1l0,0v0.5h-1.4v-0.5c0-0.1,0-0.1-0.1-0.1l0,0h-2.3c-0.1,0-0.1,0-0.1,0.1l0,0
		v0.5h-1.4v-0.5c0-0.1,0-0.1-0.1-0.1l0,0h-2.3c-0.1,0-0.1,0-0.1,0.1l0,0v0.5h-1.4v-0.5c0-0.1,0-0.1-0.1-0.1l0,0h-2.3
		c-0.1,0-0.1,0-0.1,0.1l0,0v0.5h-1.4v-0.5c0-0.1,0-0.1-0.1-0.1l0,0h-2.3c-0.1,0-0.1,0-0.1,0.1l0,0v0.5h-1.4v-0.5
		c0-0.1,0-0.1-0.1-0.1l0,0h-2.3c-0.1,0-0.1,0-0.1,0.1l0,0v0.5h-1.4v-0.5c0-0.1,0-0.1-0.1-0.1l0,0h-2.3c-0.1,0-0.1,0-0.1,0.1l0,0v0.5
		h-4.4c-1.3,0-2.3,1-2.3,2.3l0,0v1c0,1.3,1,2.3,2.3,2.3h75.9c1.3,0,2.3-1,2.3-2.3v-1C1227.1,144.7,1226.1,143.7,1224.8,143.7z"/>
	<rect x="1137.3" y="146.9" class="st8" width="99.2" height="0.3"/>
	<path class="st8" d="M1216.1,127.4h-22v-12.5h22V127.4z M1194.4,127.1h21.5v-12.1h-21.5V127.1z"/>
	<path class="st8" d="M1175.9,129.9h-19.6v-12.2h19.6V129.9z M1156.6,129.6h19.1v-11.7h-19.1V129.6z"/>
	<path class="st21" d="M1165.5,125.2l0-0.2c-0.1-0.5,0.1-1.1,0.6-1.6c0.4-0.5,0.7-0.9,0.7-1.3c0-0.5-0.3-0.8-0.9-0.8
		c-0.3,0-0.7,0.1-0.9,0.3l-0.2-0.6c0.3-0.2,0.8-0.4,1.3-0.4c1.1,0,1.6,0.7,1.6,1.4c0,0.6-0.4,1.1-0.8,1.6c-0.4,0.5-0.6,0.9-0.5,1.4
		l0,0.2L1165.5,125.2z M1165.3,126.5c0-0.3,0.2-0.6,0.5-0.6c0,0,0,0,0,0c0.3,0,0.6,0.2,0.6,0.6c0,0.3-0.2,0.6-0.5,0.6
		C1165.6,127.1,1165.3,126.8,1165.3,126.5C1165.3,126.5,1165.3,126.5,1165.3,126.5z"/>
	<path class="st21" d="M1204.5,122.5l0-0.2c-0.1-0.5,0.1-1.1,0.6-1.6c0.4-0.5,0.7-0.9,0.7-1.3c0-0.5-0.3-0.8-0.9-0.8
		c-0.3,0-0.7,0.1-0.9,0.3l-0.2-0.6c0.3-0.2,0.8-0.4,1.3-0.4c1.1,0,1.6,0.7,1.6,1.4c0,0.6-0.4,1.1-0.8,1.6c-0.4,0.5-0.6,0.9-0.5,1.4
		l0,0.2L1204.5,122.5z M1204.3,123.8c0-0.3,0.2-0.6,0.5-0.6c0,0,0,0,0,0c0.3,0,0.6,0.2,0.6,0.6c0,0.3-0.2,0.6-0.5,0.6
		S1204.3,124.1,1204.3,123.8C1204.3,123.8,1204.3,123.8,1204.3,123.8z"/>
	<circle class="st6" cx="1186.6" cy="130.3" r="9.4"/>
	<polygon class="st6" points="1183,143.2 1180.2,142.6 1181.1,136.8 1183.9,137.3 	"/>
	
		<rect x="1185.1" y="139.1" transform="matrix(0.1781 -0.984 0.984 0.1781 837.7845 1284.2119)" class="st6" width="5.1" height="2.8"/>
	
		<ellipse transform="matrix(0.1979 -0.9802 0.9802 0.1979 812.7402 1279.4918)" class="st6" cx="1188.2" cy="143.1" rx="0.9" ry="2.4"/>
	
		<ellipse transform="matrix(0.1313 -0.9913 0.9913 0.1313 885.1222 1296.4116)" class="st6" cx="1182.3" cy="143.2" rx="0.9" ry="2.4"/>
	<circle class="st13" cx="1187.3" cy="128" r="3.2"/>
	<circle class="st8" cx="1188.6" cy="126.9" r="1.1"/>
	<path class="st13" d="M1179.2,120.1c-0.1-3.5,2.9-6.4,6.7-6.6s7.1,2.5,7.2,6s-2.5,4.3-6.4,4.4
		C1182.9,124.1,1179.4,123.6,1179.2,120.1z"/>
	
		<ellipse transform="matrix(0.9747 -0.2234 0.2234 0.9747 1.4829 270.3067)" class="st6" cx="1195.3" cy="128.6" rx="4.7" ry="1.5"/>
	
		<ellipse transform="matrix(0.9747 -0.2234 0.2234 0.9747 0.3332 266.2699)" class="st6" cx="1176.9" cy="131.7" rx="4.7" ry="1.5"/>
	<path class="st13" d="M1184.1,134c-0.2,1.2,0.6,2.3,1.7,2.5c1.2,0.2,2.3-0.6,2.5-1.7c0.2-1.2-0.7-1.6-1.8-1.8
		C1185.3,132.8,1184.3,132.8,1184.1,134z"/>
	<rect x="1151" y="103.4" class="st21" width="15.4" height="14.7"/>
	<rect x="1152.7" y="105.1" class="st13" width="11.9" height="9.1"/>
	<rect x="1152.7" y="115.3" class="st22" width="6.5" height="0.3"/>
	<rect x="1152.7" y="116.3" class="st22" width="6.5" height="0.3"/>
	<circle class="st8" cx="1154.8" cy="109.7" r="1.4"/>
	<circle class="st7" cx="1158.7" cy="109.7" r="1.4"/>
	<circle class="st12" cx="1162.5" cy="109.7" r="1.4"/>
	<circle class="st8" cx="1158.7" cy="104.2" r="0.7"/>
	<rect x="1158.3" y="131.8" class="st21" width="15.4" height="14.7"/>
	<rect x="1160.1" y="133.5" class="st13" width="11.9" height="9.1"/>
	<rect x="1162.7" y="135" class="st7" width="4.2" height="4.2"/>
	<path class="st8" d="M1164.3,136.1v5.1h5.1v-5.1H1164.3z M1169.1,140.9h-4.6v-4.6h4.6V140.9z"/>
	<rect x="1160" y="143.6" class="st22" width="6.5" height="0.3"/>
	<circle class="st8" cx="1166" cy="132.6" r="0.7"/>
	<rect x="1198.5" y="127.4" class="st21" width="15.4" height="14.7"/>
	<rect x="1200.2" y="129.1" class="st13" width="11.9" height="9.1"/>
	<rect x="1204.9" y="136.3" class="st8" width="2.6" height="0.8"/>
	<rect x="1201.8" y="130.4" class="st8" width="8.8" height="0.3"/>
	<rect x="1201.8" y="131.4" class="st8" width="8.8" height="0.3"/>
	<rect x="1201.8" y="132.4" class="st8" width="8.8" height="0.3"/>
	<rect x="1201.8" y="133.5" class="st8" width="8.8" height="0.3"/>
	<rect x="1201.8" y="134.5" class="st8" width="8.8" height="0.3"/>
	<rect x="1200.2" y="139.2" class="st22" width="6.5" height="0.3"/>
	<rect x="1200.2" y="140" class="st22" width="9" height="0.3"/>
	<circle class="st8" cx="1206.2" cy="128.2" r="0.7"/>
</g>
<g>
	<ellipse class="st12" cx="1154.6" cy="267" rx="14" ry="1.6"/>
	<ellipse class="st12" cx="1229.9" cy="267" rx="14" ry="1.6"/>
	<path class="st12" d="M1226.9,237.3h-71c-0.4,0-0.8-0.3-0.8-0.8v-34.7c0-0.4,0.3-0.8,0.8-0.8h71c0.4,0,0.8,0.3,0.8,0.8v34.7
		C1227.7,237,1227.3,237.3,1226.9,237.3z M1155.9,201.4c-0.2,0-0.5,0.2-0.5,0.5v34.7c0,0.2,0.2,0.5,0.5,0.5h71
		c0.2,0,0.5-0.2,0.5-0.5v-34.7c0-0.2-0.2-0.5-0.5-0.5H1155.9z"/>
	<circle class="st8" cx="1188.9" cy="215" r="1.2"/>
	<circle class="st7" cx="1188.9" cy="215" r="0.7"/>
	<circle class="st8" cx="1193.9" cy="215" r="1.2"/>
	<circle class="st7" cx="1193.9" cy="215" r="0.7"/>
	<path class="st8" d="M1188.8,215.1c-1.2,0-2.1,0.9-2.2,2l-0.2,2.4c-0.1,1.1,0.7,2.1,1.8,2.2c0.1,0,0.1,0,0.2,0h6.1c1.1,0,2-0.9,2-2
		c0-0.1,0-0.1,0-0.2l-0.2-2.4c-0.1-1.2-1.1-2-2.2-2H1188.8z"/>
	<path class="st13" d="M1192,218.5c0.4-0.5,1-0.6,1.5-0.2c0.4-0.5,0.3-1.2-0.2-1.5c-0.5-0.4-1.2-0.3-1.5,0.2
		C1191.4,217.5,1191.5,218.1,1192,218.5C1192,218.5,1192,218.5,1192,218.5z"/>
	<path class="st13" d="M1189.5,218.7c0.4-0.5,1-0.6,1.5-0.2c0.4-0.5,0.3-1.2-0.2-1.5s-1.2-0.3-1.5,0.2
		C1188.9,217.7,1189,218.4,1189.5,218.7C1189.5,218.7,1189.5,218.7,1189.5,218.7z"/>
	<circle class="st8" cx="1190.2" cy="217.6" r="0.4"/>
	<circle class="st8" cx="1192.8" cy="217.3" r="0.4"/>
	<circle class="st7" cx="1191.4" cy="219" r="0.4"/>
	<path class="st13" d="M1189.8,219.7c0,0.5,0.4,0.8,0.9,0.8h1.7c0.5,0,0.9-0.4,0.9-0.8H1189.8z"/>
	<path class="st12" d="M1165.6,216.3c0,0.6-0.5,1.2-1.2,1.2s-1.2-0.5-1.2-1.2c0,0,0,0,0,0c0-0.6,0.5-3.3,1.2-3.3
		C1165.1,212.9,1165.6,215.6,1165.6,216.3z"/>
	<path class="st13" d="M1165.2,216.3c0,0.4-0.3,0.7-0.8,0.7c-0.4,0-0.7-0.3-0.7-0.7c0-0.4,0.3-2.9,0.7-2.9
		C1164.8,213.3,1165.2,215.8,1165.2,216.3z"/>
	<path class="st12" d="M1168.3,216.3c0,0.6,0.5,1.2,1.2,1.2c0.6,0,1.2-0.5,1.2-1.2l0,0c0-0.6-0.5-3.6-1.2-3.6
		C1168.8,212.7,1168.3,215.6,1168.3,216.3z"/>
	<path class="st13" d="M1168.7,216.3c0,0.4,0.3,0.7,0.8,0.7c0.4,0,0.7-0.3,0.7-0.7c0-0.4-0.3-3.2-0.7-3.2S1168.7,215.8,1168.7,216.3
		z"/>
	<path class="st12" d="M1164.3,216.3c-1.2,0-2.1,0.9-2.2,2l-0.2,2.4c-0.1,1.1,0.7,2.1,1.8,2.2c0.1,0,0.1,0,0.2,0h6.1
		c1.1,0,2-0.9,2-2c0-0.1,0-0.1,0-0.2l-0.2-2.4c-0.1-1.2-1.1-2-2.2-2H1164.3z"/>
	<path class="st13" d="M1167.5,219.7c0.4-0.5,1-0.6,1.5-0.2c0.4-0.5,0.3-1.2-0.2-1.5s-1.2-0.3-1.5,0.2S1167.1,219.4,1167.5,219.7
		C1167.5,219.7,1167.5,219.7,1167.5,219.7z"/>
	<path class="st13" d="M1165,219.9c0.4-0.5,1-0.6,1.5-0.2c0.4-0.5,0.3-1.2-0.2-1.5s-1.2-0.3-1.5,0.2
		C1164.4,218.9,1164.5,219.6,1165,219.9C1165,219.9,1165,219.9,1165,219.9z"/>
	<circle class="st12" cx="1165.7" cy="219.5" r="0.4"/>
	<circle class="st12" cx="1168.4" cy="219.3" r="0.4"/>
	<circle class="st13" cx="1167" cy="220.2" r="0.4"/>
	<path class="st13" d="M1167.8,220.6c0.1-0.1,0.3,0,0.4,0c0.2,0.1,0.3,0.1,0.5,0.2c0.3,0.1,0.6,0.1,0.9,0.1c0.6-0.1,1-0.6,0.9-1.2
		c0-0.2-0.3-0.1-0.2,0.1c0,0.2,0,0.5-0.2,0.6c-0.2,0.2-0.5,0.3-0.7,0.3c-0.3,0-0.6-0.1-0.9-0.2c-0.3-0.1-0.5-0.2-0.8-0.1
		C1167.6,220.4,1167.7,220.6,1167.8,220.6z"/>
	<path class="st13" d="M1166.2,220.3c-0.3-0.1-0.5,0-0.8,0.1c-0.3,0.1-0.6,0.2-0.9,0.2c-0.3,0-0.5-0.1-0.7-0.2
		c-0.2-0.2-0.3-0.4-0.2-0.7c0-0.2-0.2-0.2-0.2-0.1c-0.1,0.6,0.3,1.1,0.9,1.2c0.3,0.1,0.6,0,0.9-0.1c0.2-0.1,0.3-0.1,0.5-0.2
		c0.1-0.1,0.3-0.1,0.4,0C1166.3,220.6,1166.4,220.4,1166.2,220.3L1166.2,220.3z"/>
	<ellipse class="st13" cx="1167.1" cy="221.4" rx="0.7" ry="0.3"/>
	<circle class="st8" cx="1211.6" cy="216.1" r="2.4"/>
	<circle class="st7" cx="1211.6" cy="216.1" r="1.5"/>
	<circle class="st8" cx="1220.1" cy="216.1" r="2.4"/>
	<circle class="st7" cx="1220.1" cy="216.1" r="1.5"/>
	<path class="st8" d="M1213.3,215.3c0,0-0.1,0-0.1,0c-1.4,0.1-2.3,1.4-2,2.7l0,0.2c0.2,0.7,0.3,1.4,0.4,2.1c0.2,1,1,1.7,2,1.7h4.5
		c1,0,1.9-0.8,2-1.8c0.1-0.6,0.2-1.2,0.4-1.8l0.1-0.3c0.3-1.3-0.6-2.6-2-2.7c0,0-0.1,0-0.1,0L1213.3,215.3z"/>
	<path class="st13" d="M1216.5,218.7c0.4-0.5,1-0.6,1.5-0.2c0.4-0.5,0.3-1.2-0.2-1.5s-1.2-0.3-1.5,0.2
		C1215.9,217.6,1216,218.3,1216.5,218.7C1216.5,218.7,1216.5,218.7,1216.5,218.7z"/>
	<path class="st13" d="M1214,218.9c0.4-0.5,1-0.6,1.5-0.2c0.4-0.5,0.3-1.2-0.2-1.5s-1.2-0.3-1.5,0.2
		C1213.4,217.8,1213.5,218.5,1214,218.9C1214,218.9,1214,218.9,1214,218.9z"/>
	<circle class="st8" cx="1214.3" cy="217.8" r="0.4"/>
	<circle class="st8" cx="1216.9" cy="217.7" r="0.4"/>
	<path class="st7" d="M1216.3,219.2c0,0.2-0.2,0.4-0.4,0.4c-0.2,0-0.4-0.2-0.4-0.4c0-0.1,0-0.2,0.1-0.3c0.1-0.1,0.2,0.2,0.3,0.2
		c0.1,0,0.3-0.3,0.4-0.2C1216.3,219,1216.3,219.1,1216.3,219.2z"/>
	<path class="st13" d="M1215,219.8h2l0,0l0,0c0,0.6-0.4,1-1,1l0,0l0,0C1215.4,220.8,1215,220.4,1215,219.8L1215,219.8L1215,219.8
		L1215,219.8z"/>
	<ellipse class="st7" cx="1215.6" cy="214.9" rx="0.5" ry="0.9"/>
	
		<ellipse transform="matrix(0.5736 -0.8192 0.8192 0.5736 342.5792 1088.1711)" class="st7" cx="1216.4" cy="215.1" rx="0.9" ry="0.5"/>
	<path class="st12" d="M1174,226.2h-14.1c-0.4,0-0.8-0.3-0.8-0.8v-15.1c0-0.4,0.3-0.8,0.8-0.8h14.1c0.4,0,0.8,0.3,0.8,0.8v15.1
		C1174.7,225.8,1174.4,226.2,1174,226.2z M1159.9,209.8c-0.2,0-0.5,0.2-0.5,0.5v15.1c0,0.2,0.2,0.5,0.5,0.5h14.1
		c0.2,0,0.5-0.2,0.5-0.5v-15.1c0-0.2-0.2-0.5-0.5-0.5H1159.9z"/>
	<path class="st12" d="M1198.4,226.2h-14.1c-0.4,0-0.8-0.3-0.8-0.8v-15.1c0-0.4,0.3-0.8,0.8-0.8h14.1c0.4,0,0.8,0.3,0.8,0.8v15.1
		C1199.2,225.8,1198.8,226.2,1198.4,226.2z M1184.3,209.8c-0.2,0-0.5,0.2-0.5,0.5v15.1c0,0.2,0.2,0.5,0.5,0.5h14.1
		c0.2,0,0.5-0.2,0.5-0.5v-15.1c0-0.2-0.2-0.5-0.5-0.5H1184.3z"/>
	<path class="st12" d="M1222.9,226.2h-14.1c-0.4,0-0.8-0.3-0.8-0.8v-15.1c0-0.4,0.3-0.8,0.8-0.8h14.1c0.4,0,0.8,0.3,0.8,0.8v15.1
		C1223.6,225.8,1223.3,226.2,1222.9,226.2z M1208.8,209.8c-0.2,0-0.5,0.2-0.5,0.5v15.1c0,0.2,0.2,0.5,0.5,0.5h14.1
		c0.2,0,0.5-0.2,0.5-0.5v-15.1c0-0.2-0.2-0.5-0.5-0.5H1208.8z"/>
	<path class="st8" d="M1212.4,227.9c-0.1,0-0.1,0-0.1,0.1v0.9c0,0.1,0,0.1,0.1,0.1h7c0.1,0,0.1,0,0.1-0.1V228c0-0.1,0-0.1-0.1-0.1
		H1212.4z"/>
	<path class="st7" d="M1187.9,227.9c-0.1,0-0.1,0-0.1,0.1v0.9c0,0.1,0,0.1,0.1,0.1h7c0.1,0,0.1,0,0.1-0.1V228c0-0.1,0-0.1-0.1-0.1
		H1187.9z"/>
	<path class="st12" d="M1163.4,227.9c-0.1,0-0.1,0-0.1,0.1v0.9c0,0.1,0,0.1,0.1,0.1h7c0.1,0,0.1,0,0.1-0.1V228c0-0.1,0-0.1-0.1-0.1
		H1163.4z"/>
	<path class="st16" d="M1159.8,242.2l-0.3,1.4c0,0,0.1,3.3-0.8,2.9c-0.9-0.3-0.7-3.2-0.7-3.2l0.8-1.4L1159.8,242.2z"/>
	<circle class="st16" cx="1155" cy="224.5" r="2.2"/>
	<path class="st16" d="M1153.3,225.1l-0.2,3.2l2.7,0.3c0,0,0-2.6,0.2-2.9C1156.3,225.3,1153.3,225.1,1153.3,225.1z"/>
	<path class="st12" d="M1159.3,229.2l-3.5-1.5c0,0-1.7-1.3-2.7-0.3l-0.4,0.6c0,0-3.9,1.5-3.9,2.7l1.5,6c0,0-0.9,3.4,0.4,3.6l7.1,0.6
		c0,0,1-1.2,0.1-2.7l0.3-3.6L1159.3,229.2z"/>
	<path class="st12" d="M1157,229.3l2.4-0.1c0,0,0.8,0.2,1.3,2.3c0.5,2.1,0.7,5.4,0.7,5.4l-1.3,6.1l-1.6-0.2l0.6-5.9l-1.1-3.9
		L1157,229.3z"/>
	<path class="st12" d="M1150.1,230l-1.2,0.4c0,0-1,1.5-1,2.2c0,0.8-0.4,6.5-0.4,6.5l2.8,4.7l0.9-2.3l-1.7-2.9l1.4-3.6L1150.1,230z"
		/>
	<path class="st6" d="M1158.2,240.7l-7.8-0.7c0,0-0.8,4.9-0.7,6.9c0.1,2,0.2,5,0.2,5l-0.9,13.3l3.4-0.4l0.4-11l1.4-6l1.6,7.6
		l1.1,9.8l2.9-0.3l-1-11.8C1158.9,253,1159.8,242.4,1158.2,240.7z"/>
	<path class="st6" d="M1159.2,264.3l1,0.3c0,0,2.1-0.5,1.5,0.9c-0.5,1.4-2.1,1.2-2.1,1.2s-1.8,1.4-2.6,0.3l0.4-2.3L1159.2,264.3z"/>
	<path class="st6" d="M1151.3,264.3l1,0.3c0,0,2.1-0.5,1.5,0.9c-0.5,1.4-2.1,1.2-2.1,1.2s-1.8,1.4-2.6,0.3l0.4-2.3L1151.3,264.3z"/>
	<path class="st6" d="M1153.3,226.4c0,0-2.3-1.6-1.1-3.6c0.8-1.4,2.5-1.3,3.5-1.1c0.5,0.1,1,0.5,1.2,0.9c0.2,0.4,0.2,0.8-0.5,0.8
		c-1.3,0-0.7,1-0.7,1s-0.9,0.2-0.7,1C1155.4,226.2,1153.3,226.4,1153.3,226.4z"/>
	<path class="st6" d="M1231.5,264.6c0,0-2.4,0.2-2.2,1.1c0.2,0.9,2.2,0.7,2.2,0.7s1.5-0.1,2.3,0.1c0.8,0.2,1.7,0,1.8-0.4
		c0.1-0.4-0.4-0.7-0.4-0.7l-0.3-0.6L1231.5,264.6z"/>
	<path class="st23" d="M1225.1,245.3l-0.2,1c0,0-1.1,2.3,0.2,2.3s0.9-2.1,0.9-2.1l0.1-1L1225.1,245.3z"/>
	<path class="st23" d="M1237.1,244.5l0.2,1c0,0,1.1,2.3-0.2,2.3s-0.9-2.1-0.9-2.1l-0.1-1L1237.1,244.5z"/>
	<circle class="st23" cx="1230.6" cy="225" r="2.7"/>
	<path class="st23" d="M1229.8,227.1c0,0,0.3,1.4,0.1,2.1c-0.2,0.7,3.8-0.1,3.8-0.1s-1.4-2.3-1.4-2.4L1229.8,227.1z"/>
	<path class="st12" d="M1230.4,228.6c0,0-1.1-0.3-1.5,0.1c-0.4,0.4-2.5,1.4-2.5,1.4l1.5,9.1l6.4-1.4l1.1-8.6c0,0-1.8-1-2.1-0.8
		S1230.4,228.6,1230.4,228.6z"/>
	<path class="st12" d="M1226.9,230.2l-0.3-0.2c0,0-1.1,0.2-1.1,1.1c0.1,0.9,0.3,5.7,0.3,5.7l-1,8.7l1.8,0.3l1.8-7.3L1226.9,230.2z"
		/>
	<path class="st12" d="M1235.3,229.4l0.3-0.2c0,0,1.1,0.2,1.1,1.1s-0.3,5.7-0.3,5.7l1,8.7l-1.8,0.3l-1.8-7.3L1235.3,229.4z"/>
	<path class="st6" d="M1228,238.3l-0.2,3.8l-0.8,7.5l1.2,15.6l4.1,0.1l-1.2-14.9l1.2-5.1l4-0.1c0,0,0.3-5.9-2-7.8L1228,238.3z"/>
	<polygon class="st6" points="1232.4,244.5 1231.8,258.1 1231.6,265 1235.2,265.4 1236.1,245.1 1234.7,243.7 	"/>
	<path class="st6" d="M1231.8,221.5c0,0-2.4-0.3-3.1,0.9c0,0-0.2,0.9-0.8,1.2c-0.6,0.3,0.1,1.4,0.3,1.7s0.7,2.1,0.1,2.5
		c-0.6,0.4,1,1.7,1,1.7s0.7,1,0.1,1.7c-0.6,0.7,0.8,1,0.8,1s-0.3,2.1,0.2,1.5c0,0,0.2,4.8,2.6,1.8s3.3-4.4,2.3-5.6
		c-1-1.2-0.2-2.2-0.2-2.2s0.3-0.6-0.4-1.5C1234.2,225.2,1234.2,221.5,1231.8,221.5z"/>
	<path class="st6" d="M1228.3,265c0,0-2.4,0.2-2.2,1.1c0.2,0.9,2.2,0.7,2.2,0.7s1.5-0.1,2.3,0.1c0.8,0.2,1.7,0,1.8-0.4
		c0.1-0.4-0.4-0.7-0.4-0.7l-0.3-0.6L1228.3,265z"/>
	<polygon class="st7" points="1201,214.1 1197.4,212 1198.5,216 1199.1,214.5 1200.1,215.9 1200.4,215.7 1199.4,214.3 	"/>
	<polygon class="st8" points="1205.7,214.1 1209.3,212 1208.2,216 1207.6,214.5 1206.6,215.9 1206.3,215.7 1207.3,214.3 	"/>
</g>
</svg>
